<svg width="55" height="55" viewBox="0 0 55 55" fill="none" xmlns="http://www.w3.org/2000/svg">
<g clip-path="url(#clip0_19_7)">
<path d="M27.0047 54.0727C34.1667 54.0896 41.0422 51.2606 46.1184 46.2082C51.1947 41.1557 54.056 34.2937 54.0728 27.1316C54.0896 19.9696 51.2607 13.0941 46.2083 8.01788C41.1558 2.94163 34.2938 0.0803498 27.1317 0.0635026C19.9697 0.0466555 13.0942 2.87562 8.01797 7.92805C2.94172 12.9805 0.0804412 19.8425 0.0635941 27.0046C0.0467469 34.1666 2.87571 41.0421 7.92814 46.1183C12.9806 51.1946 19.8426 54.0559 27.0047 54.0727V54.0727ZM15.2497 28.7281C14.8021 28.727 14.3732 28.5482 14.0574 28.231C13.7417 27.9137 13.5648 27.484 13.5659 27.0363C13.5669 26.5887 13.7458 26.1598 14.063 25.8441C14.3803 25.5283 14.81 25.3515 15.2577 25.3525L34.8124 25.3985L27.582 18.1375C27.4255 17.9802 27.3014 17.7936 27.217 17.5884C27.1326 17.3832 27.0894 17.1633 27.0899 16.9414C27.0904 16.7195 27.1346 16.4998 27.22 16.295C27.3055 16.0901 27.4304 15.9041 27.5877 15.7476C27.745 15.591 27.9315 15.467 28.1368 15.3825C28.342 15.2981 28.5619 15.2549 28.7838 15.2554C29.0057 15.256 29.2254 15.3002 29.4302 15.3856C29.635 15.471 29.821 15.5959 29.9776 15.7532L40.0805 25.9038C40.2373 26.0609 40.3616 26.2474 40.4462 26.4527C40.5308 26.6579 40.574 26.8779 40.5735 27.0999C40.573 27.3219 40.5287 27.5416 40.4431 27.7464C40.3575 27.9513 40.2324 28.1372 40.0749 28.2937L29.9243 38.3966C29.6066 38.7127 29.1764 38.8898 28.7282 38.8887C28.28 38.8877 27.8506 38.7086 27.5344 38.3909C27.2182 38.0733 27.0412 37.643 27.0422 37.1948C27.0433 36.7466 27.2224 36.3172 27.54 36.001L34.8044 28.7741L15.2497 28.7281Z" fill="#fdcbd7"/>
</g>
<defs>
<clipPath id="clip0_19_7">
<rect width="54.0094" height="54.0094" fill="white" transform="translate(54.0093 54.1362) rotate(-179.865)"/>
</clipPath>
</defs>
</svg>
